# xmcd
#
# Track frame offsets:
#	150
#	15738
#	26373
#	37108
#	61057
#	71254
#	82311
#	93854
#	104087
#	115908
#	129156
#	139640
#	150393
#	165344
#
# Disc length: 2371 seconds
#
# Revision: 3
# Processed by: cddbd v1.5.2PL0 Copyright (c) Steve Scherf et al.
# Submitted via: audiograbber 1.83.01
#
DISCID=a909410e
DTITLE=Varioous - Great American Singers
DYEAR=1998
DGENRE=Vocal
TTITLE0=Nat King Cole - Unforgettable
TTITLE1=Fats Domino - Blueberry Hill
TTITLE2=The Chordettes - Mister Sandman
TTITLE3=Al Martino - Volare (Nel Blu Dipinto Di Blu)
TTITLE4=Dean Martin - Memories Are Made Of This
TTITLE5=Timi Yuro - Hurt
TTITLE6=Jay and The Americans - Cara Mia
TTITLE7=Jimmie Rogers - Honeycomb
TTITLE8=Andy Williams - Canadian Sunset
TTITLE9=Julie London - Cry Me A River
TTITLE10=The Everly Brothers - All I Have To Do Is Dream
TTITLE11=Slim Whitman - Rose Marie
TTITLE12=Peggy Lee - Fever
TTITLE13=Vikki Carr - It Must Be Him
EXTD=
EXTT0=
EXTT1=
EXTT2=
EXTT3=
EXTT4=
EXTT5=
EXTT6=
EXTT7=
EXTT8=
EXTT9=
EXTT10=
EXTT11=
EXTT12=
EXTT13=
PLAYORDER=
